<svg width="667.9" height="90.3" viewBox="0 0 667.9 90.3" xmlns="http://www.w3.org/2000/svg"><g id="svgGroup" stroke-linecap="round" fill-rule="evenodd" font-size="9pt" stroke="#000" stroke-width="0.25mm" fill="#000" style="stroke:#000;stroke-width:0.25mm;fill:#000"><path d="M 266 63.4 L 298.5 63.4 A 23.676 23.676 0 0 1 303.198 63.839 Q 306.07 64.42 308.302 65.773 A 13.414 13.414 0 0 1 309.95 66.95 A 11.583 11.583 0 0 1 314.025 74.418 A 16.918 16.918 0 0 1 314.2 76.9 A 14.995 14.995 0 0 1 313.627 81.156 A 11.308 11.308 0 0 1 309.95 86.75 A 14.524 14.524 0 0 1 304.281 89.608 Q 302.166 90.17 299.672 90.276 A 27.764 27.764 0 0 1 298.5 90.3 L 269.2 90.3 L 269.2 83.5 L 298.5 83.5 Q 302.7 83.5 304.75 81.95 A 4.831 4.831 0 0 0 306.435 79.506 Q 306.8 78.377 306.8 76.9 Q 306.8 74.515 305.848 73.012 A 4.751 4.751 0 0 0 304.75 71.8 Q 302.71 70.207 298.539 70.2 A 22.016 22.016 0 0 0 298.5 70.2 L 266 70.2 A 11.05 11.05 0 0 1 263.325 69.887 A 9.403 9.403 0 0 1 261.65 69.3 Q 259.7 68.4 258.35 67 Q 257 65.6 256.25 63.75 Q 255.5 61.9 255.5 60.1 A 9.867 9.867 0 0 1 256.438 55.931 A 11.364 11.364 0 0 1 256.5 55.8 A 9.551 9.551 0 0 1 259.134 52.487 A 11.298 11.298 0 0 1 259.5 52.2 A 12.774 12.774 0 0 1 257.41 49.495 A 10.842 10.842 0 0 1 256.4 47.1 A 23.697 23.697 0 0 1 255.594 42.675 A 27.568 27.568 0 0 1 255.5 41.1 L 255.5 36.8 Q 255.5 33.9 256.5 31.15 Q 257.5 28.4 259.5 26.3 Q 261.5 24.2 264.45 22.95 A 15.531 15.531 0 0 1 268.361 21.891 A 20.36 20.36 0 0 1 271.2 21.7 L 298.5 21.7 Q 304.9 21.7 309.2 25.4 Q 310.6 23.7 312.65 22.7 A 9.875 9.875 0 0 1 315.843 21.784 A 12.387 12.387 0 0 1 317.3 21.7 L 319.3 21.7 L 319.3 28.4 L 317.3 28.4 A 2.863 2.863 0 0 0 315.461 29.07 A 3.907 3.907 0 0 0 315.15 29.35 A 3.185 3.185 0 0 0 314.2 31.656 A 4.094 4.094 0 0 0 314.2 31.7 L 314.2 41.8 Q 314.2 44.7 313.2 47.4 Q 312.2 50.1 310.2 52.2 Q 308.2 54.3 305.25 55.55 A 15.531 15.531 0 0 1 301.339 56.609 A 20.36 20.36 0 0 1 298.5 56.8 L 266 56.8 A 3.069 3.069 0 0 0 263.78 57.721 A 3.901 3.901 0 0 0 263.75 57.75 A 3.185 3.185 0 0 0 262.8 60.056 A 4.094 4.094 0 0 0 262.8 60.1 A 3.397 3.397 0 0 0 263.045 61.406 A 3.184 3.184 0 0 0 263.75 62.45 A 3.232 3.232 0 0 0 264.858 63.191 A 3.1 3.1 0 0 0 266 63.4 Z M 583.1 42.6 L 607.1 42.6 A 26.429 26.429 0 0 1 609.804 42.73 Q 611.158 42.87 612.301 43.159 A 11.967 11.967 0 0 1 613.95 43.7 A 11.81 11.81 0 0 1 616.461 45.103 A 9.705 9.705 0 0 1 618.2 46.75 Q 619.8 48.7 620.4 51.3 Q 621 53.9 621 56.8 Q 621 59.7 620.25 62.15 Q 619.5 64.6 617.85 66.4 A 10.175 10.175 0 0 1 615.181 68.458 A 13.072 13.072 0 0 1 613.55 69.2 A 14.297 14.297 0 0 1 611.011 69.884 Q 609.238 70.2 607.1 70.2 L 579.7 70.2 A 11.05 11.05 0 0 1 577.025 69.887 A 9.403 9.403 0 0 1 575.35 69.3 Q 573.4 68.4 572.05 67 Q 570.7 65.6 569.95 63.75 Q 569.2 61.9 569.2 60.1 L 569.2 58.4 L 576.5 58.4 L 576.5 60.1 A 3.831 3.831 0 0 0 576.644 61.175 A 2.917 2.917 0 0 0 577.45 62.5 Q 578.4 63.4 579.7 63.4 L 607.1 63.4 A 18.357 18.357 0 0 0 608.334 63.361 Q 608.97 63.318 609.512 63.228 A 7.639 7.639 0 0 0 610.5 63 A 4.699 4.699 0 0 0 611.49 62.574 A 3.492 3.492 0 0 0 612.5 61.7 A 4.445 4.445 0 0 0 613.131 60.566 Q 613.324 60.068 613.435 59.479 A 7.527 7.527 0 0 0 613.45 59.4 Q 613.641 58.328 613.686 56.905 A 28.745 28.745 0 0 0 613.7 56 Q 613.7 52.905 612.756 51.35 A 3.65 3.65 0 0 0 612.35 50.8 Q 611 49.3 607.1 49.3 L 583.1 49.3 A 25.29 25.29 0 0 1 580.396 49.164 Q 579.042 49.018 577.899 48.716 A 11.604 11.604 0 0 1 576.25 48.15 A 12.354 12.354 0 0 1 573.763 46.727 A 10.039 10.039 0 0 1 572 45.05 Q 570.4 43.1 569.8 40.55 A 22.834 22.834 0 0 1 569.239 36.55 A 26.796 26.796 0 0 1 569.2 35.1 Q 569.2 32.2 569.95 29.75 Q 570.7 27.3 572.35 25.5 A 10.175 10.175 0 0 1 575.019 23.442 A 13.072 13.072 0 0 1 576.65 22.7 A 14.297 14.297 0 0 1 579.189 22.016 Q 580.963 21.7 583.1 21.7 L 610.5 21.7 A 11.05 11.05 0 0 1 613.175 22.013 A 9.403 9.403 0 0 1 614.85 22.6 Q 616.8 23.5 618.15 24.9 Q 619.5 26.3 620.25 28.1 A 9.634 9.634 0 0 1 620.937 30.659 A 8.695 8.695 0 0 1 621 31.7 L 621 33.4 L 613.7 33.4 L 613.7 31.7 A 3.397 3.397 0 0 0 613.455 30.394 A 3.184 3.184 0 0 0 612.75 29.35 A 3.232 3.232 0 0 0 611.642 28.609 A 3.1 3.1 0 0 0 610.5 28.4 L 583.1 28.4 A 16.083 16.083 0 0 0 581.323 28.49 Q 579.523 28.691 578.512 29.34 A 2.885 2.885 0 0 0 577.7 30.1 Q 576.684 31.539 576.528 34.699 A 24.422 24.422 0 0 0 576.5 35.9 Q 576.5 38.995 577.444 40.55 A 3.65 3.65 0 0 0 577.85 41.1 Q 579.2 42.6 583.1 42.6 Z M 185.4 28.4 L 185.4 21.7 L 197.9 21.7 L 197.9 23.8 A 15.407 15.407 0 0 1 203.919 21.831 A 19.354 19.354 0 0 1 206.2 21.7 L 226.7 21.7 A 19.684 19.684 0 0 1 230.065 21.975 A 14.775 14.775 0 0 1 233.4 22.95 A 15.337 15.337 0 0 1 236.953 25.063 A 13.706 13.706 0 0 1 238.3 26.3 Q 240.3 28.4 241.3 31.15 Q 242.3 33.9 242.3 36.8 L 242.3 63.4 L 247.5 63.4 L 247.5 70.2 L 229.9 70.2 L 229.9 63.4 L 235 63.4 L 235 36.8 A 10.402 10.402 0 0 0 234.649 34.029 A 7.888 7.888 0 0 0 232.85 30.75 Q 230.747 28.452 226.875 28.401 A 13.409 13.409 0 0 0 226.7 28.4 L 206.2 28.4 A 10.889 10.889 0 0 0 203.721 28.665 Q 201.478 29.189 200.05 30.75 Q 197.9 33.1 197.9 36.8 L 197.9 63.4 L 203 63.4 L 203 70.2 L 185.4 70.2 L 185.4 63.4 L 190.5 63.4 L 190.5 28.4 L 185.4 28.4 Z M 499.1 28.4 L 499.1 21.7 L 511.6 21.7 L 511.6 23.8 A 15.407 15.407 0 0 1 517.619 21.831 A 19.354 19.354 0 0 1 519.9 21.7 L 540.4 21.7 A 19.684 19.684 0 0 1 543.765 21.975 A 14.775 14.775 0 0 1 547.1 22.95 A 15.337 15.337 0 0 1 550.653 25.063 A 13.706 13.706 0 0 1 552 26.3 Q 554 28.4 555 31.15 Q 556 33.9 556 36.8 L 556 63.4 L 561.2 63.4 L 561.2 70.2 L 543.6 70.2 L 543.6 63.4 L 548.7 63.4 L 548.7 36.8 A 10.402 10.402 0 0 0 548.349 34.029 A 7.888 7.888 0 0 0 546.55 30.75 Q 544.447 28.452 540.575 28.401 A 13.409 13.409 0 0 0 540.4 28.4 L 519.9 28.4 A 10.889 10.889 0 0 0 517.421 28.665 Q 515.178 29.189 513.75 30.75 Q 511.6 33.1 511.6 36.8 L 511.6 63.4 L 516.7 63.4 L 516.7 70.2 L 499.1 70.2 L 499.1 63.4 L 504.2 63.4 L 504.2 28.4 L 499.1 28.4 Z M 347.4 63.4 L 347.4 6.7 L 325.6 6.7 L 325.6 10.1 L 318.3 10.1 L 318.3 0 L 383.8 0 L 383.8 10.1 L 376.5 10.1 L 376.5 6.7 L 354.7 6.7 L 354.7 63.4 L 363.3 63.4 L 363.3 70.2 L 338.8 70.2 L 338.8 63.4 L 347.4 63.4 Z M 62.8 6.7 L 62.8 63.4 L 105.1 63.4 L 105.1 60.1 L 112.4 60.1 L 112.4 70.2 L 46.9 70.2 L 46.9 63.4 L 55.5 63.4 L 55.5 6.7 L 46.9 6.7 L 46.9 0 L 71.3 0 L 71.3 6.7 L 62.8 6.7 Z M 127.7 36.8 L 127.7 38.5 L 120.4 38.5 L 120.4 36.8 Q 120.4 33.9 121.4 31.15 Q 122.4 28.4 124.4 26.3 A 14.388 14.388 0 0 1 128.41 23.364 A 16.934 16.934 0 0 1 129.3 22.95 A 14.977 14.977 0 0 1 133.007 21.914 A 20.04 20.04 0 0 1 136 21.7 L 156.6 21.7 A 17.697 17.697 0 0 1 160.01 22.013 A 13.244 13.244 0 0 1 163.4 23.15 A 15.57 15.57 0 0 1 167.199 25.787 A 14.281 14.281 0 0 1 168.25 26.9 Q 170.2 29.2 171.2 32 Q 172.2 34.8 172.2 37.6 L 172.2 63.4 L 177.3 63.4 L 177.3 70.2 L 164.9 70.2 L 164.9 67.5 Q 160.8 70.2 155.7 70.2 L 134.8 70.2 A 15.716 15.716 0 0 1 131.093 69.777 A 13.386 13.386 0 0 1 128.8 69 A 14.784 14.784 0 0 1 125.624 67.104 A 12.974 12.974 0 0 1 124.25 65.85 Q 122.4 63.9 121.4 61.4 Q 120.4 58.9 120.4 56.4 Q 120.4 53.9 121.4 51.4 Q 122.4 48.9 124.25 46.95 A 13.635 13.635 0 0 1 127.778 44.297 A 16.194 16.194 0 0 1 128.8 43.8 Q 131.5 42.6 134.8 42.6 L 164.9 42.6 L 164.9 37.6 Q 164.9 33.9 162.65 31.15 A 7.283 7.283 0 0 0 157.313 28.425 A 9.92 9.92 0 0 0 156.6 28.4 L 136 28.4 Q 132.1 28.4 129.9 30.75 A 8.046 8.046 0 0 0 127.809 35.219 A 11.079 11.079 0 0 0 127.7 36.8 Z M 441.4 36.8 L 441.4 38.5 L 434.1 38.5 L 434.1 36.8 Q 434.1 33.9 435.1 31.15 Q 436.1 28.4 438.1 26.3 A 14.388 14.388 0 0 1 442.11 23.364 A 16.934 16.934 0 0 1 443 22.95 A 14.977 14.977 0 0 1 446.707 21.914 A 20.04 20.04 0 0 1 449.7 21.7 L 470.3 21.7 A 17.697 17.697 0 0 1 473.71 22.013 A 13.244 13.244 0 0 1 477.1 23.15 A 15.57 15.57 0 0 1 480.899 25.787 A 14.281 14.281 0 0 1 481.95 26.9 Q 483.9 29.2 484.9 32 Q 485.9 34.8 485.9 37.6 L 485.9 63.4 L 491 63.4 L 491 70.2 L 478.6 70.2 L 478.6 67.5 Q 474.5 70.2 469.4 70.2 L 448.5 70.2 A 15.716 15.716 0 0 1 444.793 69.777 A 13.386 13.386 0 0 1 442.5 69 A 14.784 14.784 0 0 1 439.324 67.104 A 12.974 12.974 0 0 1 437.95 65.85 Q 436.1 63.9 435.1 61.4 Q 434.1 58.9 434.1 56.4 Q 434.1 53.9 435.1 51.4 Q 436.1 48.9 437.95 46.95 A 13.635 13.635 0 0 1 441.478 44.297 A 16.194 16.194 0 0 1 442.5 43.8 Q 445.2 42.6 448.5 42.6 L 478.6 42.6 L 478.6 37.6 Q 478.6 33.9 476.35 31.15 A 7.283 7.283 0 0 0 471.013 28.425 A 9.92 9.92 0 0 0 470.3 28.4 L 449.7 28.4 Q 445.8 28.4 443.6 30.75 A 8.046 8.046 0 0 0 441.509 35.219 A 11.079 11.079 0 0 0 441.4 36.8 Z M 398.3 38.4 L 398.3 63.4 L 403.4 63.4 L 403.4 70.2 L 385.8 70.2 L 385.8 63.4 L 390.9 63.4 L 390.9 28.4 L 385.8 28.4 L 385.8 21.7 L 398.3 21.7 L 398.3 24.2 A 16.195 16.195 0 0 1 401.263 22.701 A 18.72 18.72 0 0 1 402.1 22.4 A 13.86 13.86 0 0 1 405.857 21.717 A 15.994 15.994 0 0 1 406.6 21.7 L 429.1 21.7 L 429.1 28.4 L 406.6 28.4 A 7.332 7.332 0 0 0 404.205 28.784 A 6.735 6.735 0 0 0 403.15 29.25 Q 401.6 30.1 400.55 31.55 Q 399.5 33 398.9 34.8 A 11.337 11.337 0 0 0 398.3 38.344 A 10.806 10.806 0 0 0 398.3 38.4 Z M 635 21.7 L 644.6 21.7 L 667.9 45.9 L 644.6 70.2 L 635 70.2 L 658.4 45.9 L 635 21.7 Z M 0 45.9 L 23.4 21.7 L 32.9 21.7 L 9.6 45.9 L 32.9 70.2 L 23.4 70.2 L 0 45.9 Z M 271.2 50.1 L 298.5 50.1 A 10.889 10.889 0 0 0 300.979 49.835 Q 303.222 49.311 304.65 47.75 A 8.122 8.122 0 0 0 306.723 43.119 A 10.968 10.968 0 0 0 306.8 41.8 L 306.8 36.8 A 10.402 10.402 0 0 0 306.449 34.029 A 7.888 7.888 0 0 0 304.65 30.75 Q 302.547 28.452 298.675 28.401 A 13.409 13.409 0 0 0 298.5 28.4 L 271.2 28.4 A 10.912 10.912 0 0 0 268.663 28.678 A 7.168 7.168 0 0 0 265 30.75 A 8.046 8.046 0 0 0 262.909 35.219 A 11.079 11.079 0 0 0 262.8 36.8 L 262.8 41.8 A 9.666 9.666 0 0 0 263.206 44.663 A 7.848 7.848 0 0 0 265 47.75 A 7.168 7.168 0 0 0 268.663 49.822 A 10.912 10.912 0 0 0 271.2 50.1 Z M 164.9 49.3 L 134.8 49.3 A 7.047 7.047 0 0 0 131.803 49.928 A 6.931 6.931 0 0 0 129.75 51.4 Q 127.7 53.5 127.7 56.4 Q 127.7 59.2 129.75 61.3 A 6.762 6.762 0 0 0 134.66 63.399 A 8.477 8.477 0 0 0 134.8 63.4 L 155.7 63.4 Q 157.7 63.4 159.4 62.65 A 9.228 9.228 0 0 0 161.71 61.208 A 8.503 8.503 0 0 0 162.3 60.65 Q 163.5 59.4 164.2 57.75 Q 164.9 56.1 164.9 54.3 L 164.9 49.3 Z M 478.6 49.3 L 448.5 49.3 A 7.047 7.047 0 0 0 445.503 49.928 A 6.931 6.931 0 0 0 443.45 51.4 Q 441.4 53.5 441.4 56.4 Q 441.4 59.2 443.45 61.3 A 6.762 6.762 0 0 0 448.36 63.399 A 8.477 8.477 0 0 0 448.5 63.4 L 469.4 63.4 Q 471.4 63.4 473.1 62.65 A 9.228 9.228 0 0 0 475.41 61.208 A 8.503 8.503 0 0 0 476 60.65 Q 477.2 59.4 477.9 57.75 Q 478.6 56.1 478.6 54.3 L 478.6 49.3 Z" vector-effect="non-scaling-stroke"/></g></svg>